<svg id="Слой_1" data-name="Слой 1" xmlns="http://www.w3.org/2000/svg" viewBox="0 0 174.79 225.5">
  <defs>
    <style>
      .cls-1, .cls-10, .cls-6, .cls-7, .cls-8, .cls-9 {
        stroke: #000;
      }

      .cls-1, .cls-10, .cls-3, .cls-6, .cls-7, .cls-8, .cls-9 {
        stroke-miterlimit: 10;
      }

      .cls-2 {
        fill: #74a728;
      }

      .cls-10, .cls-3, .cls-6, .cls-9 {
        fill: none;
      }

      .cls-3 {
        stroke: #0a0101;
      }

      .cls-4 {
        fill: #ba1142;
      }

      .cls-5 {
        fill: #b91242;
      }

      .cls-7 {
        fill: #fff;
        stroke-width: 6px;
      }

      .cls-8, .cls-9 {
        stroke-linecap: round;
      }

      .cls-10, .cls-9 {
        stroke-width: 2px;
      }
    </style>
  </defs>
  <title>logo_yajm_3</title>
  <g>
    <path class="cls-1" d="M790.65,80.67l-3.92-1.31a5.46,5.46,0,0,1-3.57-3.48,1.87,1.87,0,0,0-1.23-1.25,17.46,17.46,0,0,1-3.73-2A4.67,4.67,0,0,1,776,69.59a4.2,4.2,0,0,0-2.21-3.12c-2.33-1.63-4.39-3.46-4.12-6.7a1.49,1.49,0,0,0-.84-1.22c-2-1.86-3.47-3.92-2.68-6.87a1.28,1.28,0,0,0-.57-1.2c-1.83-2.14-3.25-4.39-2.07-7.38a1.32,1.32,0,0,0-.51-1.23c-1.64-2.62-2-5.25,0-7.83a0.87,0.87,0,0,0-.08-1.21,5.55,5.55,0,0,1,.19-6.07,5.4,5.4,0,0,1,5.54-2.48,2.46,2.46,0,0,0,2.76-1.07c1.19-1.73,3.23-2,5.15-2.24a6.36,6.36,0,0,1,1.41-.08,5.45,5.45,0,0,0,4.41-1.27c1.22-1.08,2.92-1,4.5-.83a2.48,2.48,0,0,0,2.12-.61c1.89-1.68,4.14-1.5,6.37-.9a5.07,5.07,0,0,0,4.11-.29c2.16-1.16,4.38-.24,6.43.75a3.39,3.39,0,0,0,2.91.24c2.06-.75,4,0,5.77,1.18a2.54,2.54,0,0,0,2.31.36,5.25,5.25,0,0,1,4.49.75,14.23,14.23,0,0,1,2.2,1.75,4.78,4.78,0,0,0,4.05,1.77c1.54-.12,2.69,1,3.76,2a38.82,38.82,0,0,1,10,16.22c0.15,0.44.28,0.89,0.42,1.34a0.9,0.9,0,0,0,.19.17,49.54,49.54,0,0,1,3.58-8.67,37.07,37.07,0,0,1,7.13-9.27,5.82,5.82,0,0,1,4.79-1.86,1.88,1.88,0,0,0,1.76-.72,15.28,15.28,0,0,1,3.62-3,4.7,4.7,0,0,1,3.77-.58,3.48,3.48,0,0,0,3.17-.59,6.25,6.25,0,0,1,6.12-.62,1.49,1.49,0,0,0,1.43-.26c1.68-.71,3.32-1.57,5.22-1.43a2.81,2.81,0,0,1,1.36.25c1.89,1.38,3.83.72,5.77,0.26a5.72,5.72,0,0,1,5.4,1.29,1.79,1.79,0,0,0,1.54.47c2.31-.26,4.51,0,6.2,1.81a1.43,1.43,0,0,0,1.32.25,18.41,18.41,0,0,1,5.73.62,4.46,4.46,0,0,1,2.67,1.79c0.67,1.13,1.53,1.12,2.62,1a5.45,5.45,0,0,1,5.56,2.43,5.63,5.63,0,0,1,.26,6.08,1,1,0,0,0-.05,1.37c2,2.48,1.59,5,0,7.54a2.41,2.41,0,0,0-.37,2.16c0.67,2.4-.34,4.39-1.92,6.13a2.76,2.76,0,0,0-.83,2.6c0.45,2.55-1,4.38-2.8,5.94a2.23,2.23,0,0,0-.88,2,5.62,5.62,0,0,1-2.43,4.68c-0.4.33-.79,0.69-1.22,1a5.53,5.53,0,0,0-2.75,3.64c-0.47,2.34-2.65,3.37-4.66,4.29a4.56,4.56,0,0,0-2.84,2.56c-0.7,1.83-2.5,2.58-4.27,3.14-1.09.34-2.22,0.56-3.33,0.86-0.33.09-.79,0-0.86,0.53s0.39,0.55.69,0.73A36.29,36.29,0,0,1,903,91a35.78,35.78,0,0,1,7.51,22.11,5.81,5.81,0,0,0,2.48,4.78c10.15,7.45,15.13,17.47,14.61,30a32,32,0,0,1-7.06,18.88,8.06,8.06,0,0,0-2,4.3,3.54,3.54,0,0,1-.24.91c-2.06,5.42-1.93,11.26-3.23,16.8-3.2,13.7-11.65,22.88-25,27.53a6.49,6.49,0,0,0-1.8.92,78.68,78.68,0,0,1-17.66,9.94,4.59,4.59,0,0,0-1.74,1.25c-6.1,6.76-13.59,11-22.67,12.14-12.38,1.52-22.94-2.33-31.64-11.24a6.15,6.15,0,0,0-2.27-1.55,78.45,78.45,0,0,1-19.63-10.87,19,19,0,0,0-3.36-2c-11.71-5.62-18.86-14.83-21.3-27.59-0.53-2.76-1.82-5.19-2.68-7.81-1-2.93-1.6-6-2.6-8.84s-3.43-4.89-4.85-7.58a34.43,34.43,0,0,1,10-44.05,6.24,6.24,0,0,0,2.62-5.06c0.09-14.77,6.46-25.8,19.42-33Zm66.42-51.2a5.76,5.76,0,0,0-1.72,1.45,34,34,0,0,0-8.08,15c-1.64,6.2.45,11.15,6,14.31a1.61,1.61,0,0,0,2.3-.27A21.84,21.84,0,0,1,858,58c9.57-7.32,20.18-12.75,31.28-17.28,2.24-.92,4.53-1.73,6.8-2.59a1.51,1.51,0,0,1-.8.8c-5.95,3-11.76,6.33-17.38,9.95-6.82,4.39-13.41,9.06-19,15a2,2,0,0,0-.53,2.35,16.25,16.25,0,0,0,7.81,9,35.93,35.93,0,0,0,11.16,3.43c3,0.48,6,.92,9.2.13-0.76-.41-1.38-0.69-1.92-1.06s-1.08-.74-0.87-1.35a1.47,1.47,0,0,1,1.36-.54c1.4-.1,2.82-0.15,4.21-0.33a16.91,16.91,0,0,0,6-1.57,8.51,8.51,0,0,1-2.6-1,0.9,0.9,0,0,1-.6-0.83c0.08-.39.49-0.31,0.78-0.39A56.79,56.79,0,0,0,900.67,69a3.8,3.8,0,0,0,1.93-1.46,4.34,4.34,0,0,1-2.93,0,1.14,1.14,0,0,1-1.1-.75c-0.05-.58.63-0.58,1-0.76a35.32,35.32,0,0,0,8.91-5.55c-1.62,0-3.08.37-4.46-.7a39.73,39.73,0,0,0,8.25-6.51c-1.58-.12-3,0.53-4.35-0.58a41.76,41.76,0,0,0,7.24-7.46,9.46,9.46,0,0,1-1.87.43c-1.05,0-2.56.6-3-.46s1.1-1.43,1.8-2.07c1.68-1.54,3.48-3,4.49-5.25-1.6,0-3,.53-4.58.15a20.85,20.85,0,0,1,4-8h-5.12a15.83,15.83,0,0,1-5.46-.59l2.84-2.33a3.38,3.38,0,0,0-2-.54,22.4,22.4,0,0,0-8.45,1.27,1,1,0,0,1-1.3-.07,1.41,1.41,0,0,1,.08-1.48c0.35-.82,1.3-1.08,1.87-1.94A29,29,0,0,0,890,26.3c-0.48.17-1,.55-1.43,0a1.29,1.29,0,0,1,.25-1.45c0.51-.93,1.51-1.42,2.35-2.35a24.76,24.76,0,0,0-9.1,3.34c-0.33.21-.66,0.6-1.11,0.25a1.33,1.33,0,0,1-.4-1.14c0-1.15,1-1.74,1.51-2.7a3.85,3.85,0,0,0-.53.09,19.41,19.41,0,0,0-7,4.38c-0.84.8-1.24,0.6-1.66-.39a3.43,3.43,0,0,1,.42-2.94,18.21,18.21,0,0,0-5.8,4.78c-0.28.31-.41,1-1,0.76a1.54,1.54,0,0,1-1-1.31c0-.83,0-1.67,0-2.59-3,2.06-5,4.95-7.32,7.58a17,17,0,0,1-.77-1.59A14.21,14.21,0,0,1,857.07,29.47Zm-69.68,8.76a5.33,5.33,0,0,1,2.69.7c13.82,5.25,27,11.71,38.48,21.19a1.07,1.07,0,0,0,1.35.42c3.83-2,6.64-4.73,7.09-9.24,0.5-5.12-1.51-9.6-3.82-14a26.72,26.72,0,0,0-6.32-8c-0.36,1.17-.43,2.3-1.3,3.17-2.27-2.61-4.28-5.44-7.42-7.59,0.13,0.59.18,0.84,0.24,1.09a2.27,2.27,0,0,1-.83,2.78c-1.08.59-1.25-.76-1.76-1.27-1.55-1.57-3-3.2-5.39-4.1l0.39,0.6a2.21,2.21,0,0,1-.32,3c-0.81.69-1.31-.53-1.85-0.94a20.07,20.07,0,0,0-7-3.9,15.83,15.83,0,0,1,1.52,2A1.59,1.59,0,0,1,803,26c-0.6.65-1-.06-1.48-0.31a24.36,24.36,0,0,0-8.94-3.13c1.14,0.94,2.15,1.47,2.61,2.52a1.3,1.3,0,0,1,0,1.34c-0.31.41-.76,0.12-1.14,0-0.88-.31-1.76-0.67-2.66-0.9a18.57,18.57,0,0,0-6.05-1c0.88,0.73,1.73,1,2,1.88a1.46,1.46,0,0,1,0,1.49c-0.38.48-.86,0.15-1.29,0-0.9-.25-1.79-0.55-2.71-0.76a16.36,16.36,0,0,0-7.63-.15c0.87,1,1.94,1.59,2.48,2.72-3.39.71-6.72,0.25-10.24,0.42a21.85,21.85,0,0,1,3.48,6.32c0.65,1.81.6,1.86-1.4,1.77-0.84,0-1.68-.48-2.67-0.13,0.28,0.5.48,0.92,0.74,1.29a21.08,21.08,0,0,0,4.56,4.48c0.48,0.37,1.25.63,1,1.41s-1.08.53-1.65,0.52c-1,0-1.91-.17-3-0.28,0.23,0.38.37,0.65,0.56,0.89a43.36,43.36,0,0,0,5.75,5.75c0.74,0.65.62,0.88-.28,1.18s-2-.15-3,0a1.09,1.09,0,0,0,.52.83A33.56,33.56,0,0,0,778.71,59c0.33,0.21.94,0.32,0.82,0.81a1.37,1.37,0,0,1-1.14.63c-0.89.3-1.8-.12-2.91,0.06,3,2.89,6.61,4.37,10.1,6.21-1.28,1.09-2.65,1-4.41,1.15,0.93,0.51,1.49.86,2.08,1.13a48,48,0,0,0,7.54,2.54c0.35,0.1,1,0,1,.56a1.1,1.1,0,0,1-.8.89c-0.7.34-1.44,0.6-2.36,1a20.7,20.7,0,0,0,6.13,1.49c1.35,0.14,2.7.22,4.05,0.31a1.47,1.47,0,0,1,1.37.53c0.22,0.62-.46,1-0.89,1.32s-1.1.69-2,1.24a36.31,36.31,0,0,0,4.2.29,48.18,48.18,0,0,0,12-2.18c5.1-1.6,9.17-4.47,11.51-9.43,1.19-2.52,1.15-2.73-.86-4.69C813.41,52.41,800.55,45.19,787.39,38.23Z" transform="translate(-753.3 -15.93)"/>
    <path class="cls-2" d="M857.15,29.43a14.21,14.21,0,0,0,.37,1.55,17,17,0,0,0,.77,1.59c2.37-2.63,4.3-5.51,7.32-7.58,0,0.92,0,1.76,0,2.59a1.54,1.54,0,0,0,1,1.31c0.6,0.25.73-.45,1-0.76a18.21,18.21,0,0,1,5.8-4.78A3.43,3.43,0,0,0,873,26.3c0.41,1,.81,1.19,1.66.39a19.41,19.41,0,0,1,7-4.38,3.85,3.85,0,0,1,.53-0.09c-0.52,1-1.53,1.55-1.51,2.7a1.33,1.33,0,0,0,.4,1.14c0.45,0.35.78,0,1.11-.25a24.76,24.76,0,0,1,9.1-3.34c-0.84.92-1.84,1.42-2.35,2.35a1.29,1.29,0,0,0-.25,1.45c0.41,0.54.95,0.16,1.43,0a29,29,0,0,1,8.37-1.95c-0.57.87-1.52,1.12-1.87,1.94a1.41,1.41,0,0,0-.08,1.48,1,1,0,0,0,1.3.07,22.4,22.4,0,0,1,8.45-1.27,3.38,3.38,0,0,1,2,.54l-2.84,2.33a15.83,15.83,0,0,0,5.46.59H916a20.85,20.85,0,0,0-4,8c1.55,0.38,3-.19,4.58-0.15-1,2.28-2.82,3.71-4.49,5.25-0.7.64-2.22,1.11-1.8,2.07s2,0.47,3,.46a9.46,9.46,0,0,0,1.87-.43A41.76,41.76,0,0,1,908,52.66c1.33,1.11,2.77.46,4.35,0.58a39.73,39.73,0,0,1-8.25,6.51c1.39,1.07,2.84.71,4.46,0.7A35.32,35.32,0,0,1,899.66,66c-0.39.18-1.07,0.19-1,.76a1.14,1.14,0,0,0,1.1.75,4.34,4.34,0,0,0,2.93,0A3.8,3.8,0,0,1,900.74,69a56.79,56.79,0,0,1-7.84,2.64c-0.28.08-.7,0-0.78,0.39a0.9,0.9,0,0,0,.6.83,8.51,8.51,0,0,0,2.6,1,16.91,16.91,0,0,1-6,1.57c-1.39.18-2.81,0.23-4.21,0.33a1.47,1.47,0,0,0-1.36.54c-0.21.61,0.4,1,.87,1.35s1.16,0.65,1.92,1.06c-3.21.79-6.21,0.35-9.2-.13a35.93,35.93,0,0,1-11.16-3.43,16.25,16.25,0,0,1-7.81-9,2,2,0,0,1,.53-2.35c5.62-5.92,12.21-10.6,19-15,5.62-3.61,11.44-6.9,17.38-9.95a1.51,1.51,0,0,0,.8-0.8c-2.27.86-4.55,1.67-6.8,2.59-11.1,4.53-21.71,10-31.28,17.28a21.84,21.84,0,0,0-2.42,2,1.61,1.61,0,0,1-2.3.27c-5.55-3.16-7.64-8.11-6-14.31a34,34,0,0,1,8.08-15A5.76,5.76,0,0,1,857.15,29.43Z" transform="translate(-753.3 -15.93)"/>
    <path class="cls-2" d="M787.44,38.23c13.16,7,26,14.18,36.71,24.64,2,2,2,2.18.86,4.69-2.34,5-6.4,7.83-11.51,9.43a48.18,48.18,0,0,1-12,2.18,36.31,36.31,0,0,1-4.2-.29c0.89-.55,1.48-0.84,2-1.24s1.11-.7.89-1.32a1.47,1.47,0,0,0-1.37-.53c-1.35-.09-2.71-0.17-4.05-0.31A20.7,20.7,0,0,1,788.67,74c0.91-.37,1.65-0.63,2.36-1a1.1,1.1,0,0,0,.8-0.89c0-.57-0.64-0.46-1-0.56A48,48,0,0,1,783.3,69c-0.59-.28-1.15-0.62-2.08-1.13,1.76-.13,3.13-0.06,4.41-1.15-3.48-1.85-7.1-3.32-10.1-6.21,1.11-.17,2,0.25,2.91-0.06a1.37,1.37,0,0,0,1.14-.63c0.12-.48-0.5-0.59-0.82-0.81a33.56,33.56,0,0,1-6.27-4.92,1.09,1.09,0,0,1-.52-0.83c1-.17,2,0.32,3,0s1-.54.28-1.18a43.36,43.36,0,0,1-5.75-5.75c-0.19-.24-0.32-0.51-0.56-0.89,1.11,0.11,2.07.26,3,.28,0.58,0,1.38.23,1.65-.52s-0.49-1-1-1.41a21.08,21.08,0,0,1-4.56-4.48c-0.26-.38-0.46-0.79-0.74-1.29,1-.35,1.83.09,2.67,0.13,2,0.1,2.05,0,1.4-1.77A21.85,21.85,0,0,0,768,30.06c3.53-.18,6.85.28,10.24-0.42-0.54-1.13-1.61-1.73-2.48-2.72a16.36,16.36,0,0,1,7.63.15c0.91,0.21,1.8.51,2.71,0.76,0.44,0.12.91,0.45,1.29,0a1.46,1.46,0,0,0,0-1.49c-0.32-.84-1.17-1.14-2-1.88a18.57,18.57,0,0,1,6.05,1c0.91,0.23,1.78.59,2.66,0.9,0.39,0.14.83,0.42,1.14,0a1.3,1.3,0,0,0,0-1.34c-0.46-1-1.47-1.58-2.61-2.52a24.36,24.36,0,0,1,8.94,3.13c0.43,0.25.88,1,1.48,0.31a1.59,1.59,0,0,0,.18-1.76,15.83,15.83,0,0,0-1.52-2,20.07,20.07,0,0,1,7,3.9c0.54,0.42,1,1.64,1.85.94a2.21,2.21,0,0,0,.32-3l-0.39-.6c2.35,0.9,3.84,2.53,5.39,4.1,0.51,0.52.68,1.86,1.76,1.27a2.27,2.27,0,0,0,.83-2.78c-0.06-.25-0.11-0.5-0.24-1.09,3.14,2.16,5.15,5,7.42,7.59,0.88-.87.94-2,1.3-3.17a26.72,26.72,0,0,1,6.32,8c2.31,4.36,4.32,8.84,3.82,14-0.44,4.51-3.25,7.28-7.09,9.24a1.07,1.07,0,0,1-1.35-.42c-11.5-9.48-24.65-15.94-38.48-21.19A5.33,5.33,0,0,0,787.44,38.23Z" transform="translate(-753.3 -15.93)"/>
    <path class="cls-3" d="M828.74,177.83" transform="translate(-753.3 -15.93)"/>
    <path class="cls-3" d="M827,204.13" transform="translate(-753.3 -15.93)"/>
    <path class="cls-4" d="M908.86,178.59A30.38,30.38,0,0,1,881,209.23a18.57,18.57,0,0,1-3.88.05c-4.24-.53-6.69-4.17-7.17-7.72-0.94-6.87,1.11-13,4.32-18.85a47.8,47.8,0,0,1,14.09-16.14c3.27-2.34,6.86-4,11-3.82a7.86,7.86,0,0,1,7.82,5.82c0.54,1.68.95,3.41,1.34,5.13A18.83,18.83,0,0,1,908.86,178.59Z" transform="translate(-753.3 -15.93)"/>
    <path class="cls-4" d="M812.57,197.9c-0.17,3.66-.48,6.8-3.08,9.29a8.8,8.8,0,0,1-7.68,2.2c-9.58-1.24-17.25-5.75-22.49-14a29.57,29.57,0,0,1-4.07-22.8,8.71,8.71,0,0,1,9.39-6.63c5.48,0.54,9.78,3.09,13.72,6.51a44.07,44.07,0,0,1,12.32,17.28A35.42,35.42,0,0,1,812.57,197.9Z" transform="translate(-753.3 -15.93)"/>
    <path class="cls-5" d="M780.31,135.68a62.79,62.79,0,0,1-3.44,20.09,22.41,22.41,0,0,1-3.09,6.44,13.38,13.38,0,0,1-1.27,1.58c-1.52,1.45-2.9,1.42-4.32-.14A27.27,27.27,0,0,1,773.62,122c2.2-1.42,3-1.26,4.55.87,1.24,1.7,1.46,3.75,1.78,5.76A54.12,54.12,0,0,1,780.31,135.68Z" transform="translate(-753.3 -15.93)"/>
    <path class="cls-5" d="M901.06,132.16c0-3.66.25-7.3,1.78-10.71,0.74-1.66,1.81-2.07,3.38-1.16,9.42,5.46,14.36,13.58,14.27,24.54a26.09,26.09,0,0,1-7.35,18c-1.71,1.85-2.48,2.17-4.5-.23a18,18,0,0,1-3-5.28,74.67,74.67,0,0,1-4-17.8A46.52,46.52,0,0,1,901.06,132.16Z" transform="translate(-753.3 -15.93)"/>
    <path class="cls-6" d="M912.25,168.75" transform="translate(-753.3 -15.93)"/>
    <path class="cls-7" d="M888.75,121.33s7.2,55.39,4.7,68.21-8.16,26.13-30.33,34c-21.72,7.67-44.45,0-44.45,0-22.5-6.83-27.83-21.13-30.33-34s4-66.54,4-66.54-3.62-16.67,0-23.67S809.67,85,817.67,85s31.73-3.33,49.53,0S888.1,116.09,888.75,121.33Z" transform="translate(-753.3 -15.93)"/>
    <path class="cls-8" d="M798.12,140.86c0.5-.13,17.89-6.1,33.45,2.33a2.33,2.33,0,0,1-2.87,1.3c-1.55-.53-11.58-4.73-29.26-1.67A7.47,7.47,0,0,1,798.12,140.86Z" transform="translate(-753.3 -15.93)"/>
    <path class="cls-4" d="M815.69,150.19a3.09,3.09,0,0,1,1.41-4.05,4.55,4.55,0,0,1,3.82-.32,3.85,3.85,0,0,1,2.22,1.74,3,3,0,0,1-1.08,4.06,4.58,4.58,0,0,1-4.71.2A3.41,3.41,0,0,1,815.69,150.19Z" transform="translate(-753.3 -15.93)"/>
    <path class="cls-9" d="M829.88,150.5a13.47,13.47,0,0,0-6.37-3,4.17,4.17,0,0,1-4,5c-2.19-.12-4.88-1.52-3.95-5.15a9.59,9.59,0,0,0-5.79,2.39S816.5,158.94,829.88,150.5Z" transform="translate(-753.3 -15.93)"/>
    <path class="cls-4" d="M866.93,150.19a3.09,3.09,0,0,0-1.41-4.05,4.55,4.55,0,0,0-3.82-.32,3.85,3.85,0,0,0-2.22,1.74,3,3,0,0,0,1.08,4.06,4.58,4.58,0,0,0,4.71.2A3.41,3.41,0,0,0,866.93,150.19Z" transform="translate(-753.3 -15.93)"/>
    <path class="cls-9" d="M852.75,150.5a13.47,13.47,0,0,1,6.38-3,4.17,4.17,0,0,0,4,5c2.19-.12,4.88-1.52,3.95-5.15a9.59,9.59,0,0,1,5.79,2.39S866.13,158.94,852.75,150.5Z" transform="translate(-753.3 -15.93)"/>
    <path d="M792.38,133.5c0.61,2.67,1.16,5.35,1.69,8s1,5.38,1.46,8.08l0.64,4.07c0.09,0.68.2,1.36,0.27,2.06,0,0.35.08,0.68,0.11,1l0,0.53,0,0.27s0,0.14,0,.2l0.05,0.51a3.81,3.81,0,0,0,.08.41,5.68,5.68,0,0,0,.23.78,3.93,3.93,0,0,0,.84,1.29,2.48,2.48,0,0,0,1.18.67,1.57,1.57,0,0,0,.54,0,0.73,0.73,0,0,0,.21-0.08l-0.43,1a2.68,2.68,0,0,1,.75-1.8,4.05,4.05,0,0,1,.6-0.52c0.19-.12.4-0.24,0.59-0.34a9.59,9.59,0,0,1,2.23-.72,17,17,0,0,1,2.15-.3l2-.16c2.7-.18,5.4-0.25,8.11-0.27a75.26,75.26,0,0,1,8.17.36,38.23,38.23,0,0,1,4.13.63,15.77,15.77,0,0,1,4.2,1.44,5.46,5.46,0,0,1,2,1.86,3.71,3.71,0,0,1,.46,1.59,2.42,2.42,0,0,1,0,.43l0,0.25,0,0.5a7,7,0,0,1-2.19,4.4,10.29,10.29,0,0,1-4,2.23,20.21,20.21,0,0,1-4.18.82,48,48,0,0,1-8.21.05,33.74,33.74,0,0,1-8.09-1.4l-0.06,0h0c-0.79-.42-1.6-0.84-2.39-1.34a9.53,9.53,0,0,1-2.14-1.81,14.54,14.54,0,0,1-2.46-4.86,26.35,26.35,0,0,0,1.31,2.35,10.6,10.6,0,0,0,1.65,2,14.92,14.92,0,0,0,4.56,2.52l-0.08,0a25.89,25.89,0,0,0,3.86.56c1.31,0.11,2.63.15,3.95,0.15a54.56,54.56,0,0,0,7.84-.51,18.36,18.36,0,0,0,3.65-.9,7.74,7.74,0,0,0,2.94-1.74,4.31,4.31,0,0,0,1.26-2.67l0-.5v-0.25s0,0,0-.07a0.89,0.89,0,0,0-.1-0.32,3.12,3.12,0,0,0-1-.78,13.19,13.19,0,0,0-3.4-1.1,35.36,35.36,0,0,0-3.82-.54c-2.6-.23-5.24-0.34-7.88-0.37s-5.3.05-8,.16l-2,.09a14.24,14.24,0,0,0-1.84.2,7.11,7.11,0,0,0-1.6.45l-0.29.15s-0.15.1-.16,0.13,0,0-.05,0l-0.43,1a3.11,3.11,0,0,1-1.65.69,4,4,0,0,1-1.49-.14,5,5,0,0,1-2.28-1.44,6.3,6.3,0,0,1-1.27-2.18,8.41,8.41,0,0,1-.39-2.31l0-.56v-0.49c0-.32,0-0.66,0-1l-0.13-2-0.34-4.07-0.76-8.16C792.84,139,792.6,136.23,792.38,133.5Z" transform="translate(-753.3 -15.93)"/>
    <path d="M828.75,173.67a5.37,5.37,0,0,0,1.39,2.9,4,4,0,0,0,2.62,1.07,0.79,0.79,0,0,1,.69.53l0.07,0.22a10.36,10.36,0,0,0,1,2.27,4.79,4.79,0,0,0,.68.86,3.7,3.7,0,0,0,.8.63,4.47,4.47,0,0,0,1,.41,3.29,3.29,0,0,0,.53.13,4.16,4.16,0,0,0,.56.09,8.06,8.06,0,0,0,1.19.07h2.71c0.25,0,.42,0,0.61,0a4.23,4.23,0,0,0,.56-0.05,3.83,3.83,0,0,0,.56-0.09,3.29,3.29,0,0,0,.53-0.13,4.36,4.36,0,0,0,.95-0.41,4.45,4.45,0,0,0,1.48-1.49,10.25,10.25,0,0,0,1-2.27l0.07-.21a0.79,0.79,0,0,1,.7-0.53,4,4,0,0,0,2.61-1.07,5.37,5.37,0,0,0,1.39-2.9,4.86,4.86,0,0,1,.11,1.78,4.6,4.6,0,0,1-.58,1.8,4.55,4.55,0,0,1-1.36,1.47,6.28,6.28,0,0,1-1.83.82l0.77-.75a11.26,11.26,0,0,1-.26,1.47,10.16,10.16,0,0,1-.5,1.48,6.35,6.35,0,0,1-2.07,2.66,6.8,6.8,0,0,1-1.52.81,7.22,7.22,0,0,1-1.59.44,11.25,11.25,0,0,1-1.58.17l-1.4,0-1.42,0a10.9,10.9,0,0,1-1.56-.17,7.27,7.27,0,0,1-1.59-.44,6.71,6.71,0,0,1-1.52-.82,6.35,6.35,0,0,1-1.24-1.22,6.49,6.49,0,0,1-.83-1.44,10.16,10.16,0,0,1-.5-1.48,11.12,11.12,0,0,1-.26-1.47l0.77,0.74a6.27,6.27,0,0,1-1.83-.82,4.52,4.52,0,0,1-1.94-3.26A4.86,4.86,0,0,1,828.75,173.67Z" transform="translate(-753.3 -15.93)"/>
    <path d="M792.38,170s0.77,2.18,2.05,5.33c0.65,1.57,1.44,3.39,2.36,5.29,0.45,1,1,1.91,1.49,2.88s1.08,1.94,1.69,2.87,1.21,1.87,1.86,2.75,1.32,1.72,2,2.49,1.39,1.5,2.09,2.14,1.4,1.22,2.07,1.73l1,0.7,0.92,0.59c0.58,0.36,1.12.63,1.55,0.88l1.42,0.68s-0.56-.09-1.56-0.31c-0.48-.16-1.09-0.3-1.75-0.57l-1.05-.43c-0.36-.17-0.73-0.37-1.13-0.58a21.64,21.64,0,0,1-4.82-3.62,27.45,27.45,0,0,1-2.27-2.53c-0.7-.92-1.39-1.87-2-2.86s-1.18-2-1.71-3-1-2.06-1.39-3.07-0.76-2-1.07-2.95-0.56-1.85-.77-2.69A31.69,31.69,0,0,1,792.38,170Z" transform="translate(-753.3 -15.93)"/>
    <path class="cls-8" d="M883,140.86c-0.5-.13-17.89-6.1-33.45,2.33a2.33,2.33,0,0,0,2.87,1.3c1.55-.53,11.58-4.73,29.26-1.67A7.47,7.47,0,0,0,883,140.86Z" transform="translate(-753.3 -15.93)"/>
    <path d="M888.75,133.5c-0.22,2.73-.47,5.45-0.72,8.17l-0.76,8.16-0.34,4.07-0.13,2c0,0.33,0,.67,0,1v0.49l0,0.56a8.41,8.41,0,0,1-.39,2.31,6.3,6.3,0,0,1-1.27,2.18,5,5,0,0,1-2.28,1.44,4,4,0,0,1-1.49.14,3.11,3.11,0,0,1-1.65-.69l-0.43-1s0,0.09-.05,0-0.12-.08-0.16-0.13l-0.29-.15a7.11,7.11,0,0,0-1.6-.45,14.24,14.24,0,0,0-1.84-.2l-2-.09c-2.65-.11-5.31-0.18-8-0.16s-5.29.13-7.88,0.37a35.36,35.36,0,0,0-3.82.54,13.19,13.19,0,0,0-3.4,1.1,3.12,3.12,0,0,0-1,.78,0.89,0.89,0,0,0-.1.32s0,0.07,0,.07v0.25l0,0.5a4.31,4.31,0,0,0,1.26,2.67,7.74,7.74,0,0,0,2.94,1.74,18.36,18.36,0,0,0,3.65.9,54.56,54.56,0,0,0,7.84.51c1.32,0,2.64,0,3.95-.15a25.89,25.89,0,0,0,3.86-.56l-0.08,0a14.92,14.92,0,0,0,4.56-2.52,10.6,10.6,0,0,0,1.65-2,26.35,26.35,0,0,0,1.31-2.35,14.54,14.54,0,0,1-2.46,4.86,9.53,9.53,0,0,1-2.14,1.81c-0.79.5-1.59,0.91-2.39,1.34h0l-0.06,0a33.74,33.74,0,0,1-8.09,1.4,48,48,0,0,1-8.21-.05,20.21,20.21,0,0,1-4.18-.82,10.29,10.29,0,0,1-4-2.23,7,7,0,0,1-2.19-4.4l0-.5,0-.25a2.42,2.42,0,0,1,0-.43,3.71,3.71,0,0,1,.46-1.59,5.46,5.46,0,0,1,2-1.86,15.77,15.77,0,0,1,4.2-1.44,38.23,38.23,0,0,1,4.13-.63,75.26,75.26,0,0,1,8.17-.36c2.71,0,5.41.09,8.11,0.27l2,0.16a17,17,0,0,1,2.15.3,9.59,9.59,0,0,1,2.23.72c0.19,0.1.4,0.22,0.59,0.34a4.05,4.05,0,0,1,.6.52,2.68,2.68,0,0,1,.75,1.8l-0.43-1a0.73,0.73,0,0,0,.21.08,1.57,1.57,0,0,0,.54,0,2.48,2.48,0,0,0,1.18-.67,3.93,3.93,0,0,0,.84-1.29,5.68,5.68,0,0,0,.23-0.78,3.81,3.81,0,0,0,.08-0.41l0.05-.51c0-.06,0-0.23,0-0.2l0-.27,0-.53c0-.36.07-0.7,0.11-1,0.07-.69.17-1.37,0.27-2.06l0.64-4.07c0.43-2.7,1-5.39,1.46-8.08S888.14,136.17,888.75,133.5Z" transform="translate(-753.3 -15.93)"/>
    <path d="M888.75,170a31.69,31.69,0,0,1-1,5.69c-0.21.84-.46,1.75-0.77,2.69s-0.65,1.94-1.07,2.95-0.85,2-1.39,3.07-1.09,2-1.71,3-1.32,1.94-2,2.86a27.45,27.45,0,0,1-2.27,2.53,21.64,21.64,0,0,1-4.82,3.62c-0.39.2-.76,0.4-1.13,0.58l-1.05.43c-0.66.27-1.27,0.41-1.75,0.57-1,.22-1.56.31-1.56,0.31l1.42-.68c0.43-.25,1-0.52,1.55-0.88l0.92-.59,1-.7c0.67-.51,1.36-1.08,2.07-1.73s1.39-1.37,2.09-2.14,1.34-1.63,2-2.49,1.28-1.8,1.86-2.75,1.16-1.91,1.69-2.87,1-1.93,1.49-2.88c0.92-1.9,1.71-3.71,2.36-5.29C888,172.18,888.75,170,888.75,170Z" transform="translate(-753.3 -15.93)"/>
    <g>
      <path d="M840.43,230.33c-8.42,0-29.59,2.67-26-19.49-4.67,3-14.25-7.17-14.25-7.17s11.82,5.15,13.17.5,5-13.63,11.91-19.45c1.89-2.13,1.53-6.75,1.53-6.75s2.26,6.22,3.88,7c-2.89,2.35-12.36,11.52-12.72,17.46S825.61,221,839.05,221h3c13.44,0,21.47-12.64,21.11-18.58s-9.83-15-12.72-17.36c1.62-.78,3.88-7.05,3.88-7.05s-0.36,4.6,1.53,6.72c6.95,5.83,10.55,14.79,11.91,19.44s13.17-.5,13.17-0.5-7.13,8.63-14.25,7.17C872.17,228.83,848.85,230.33,840.43,230.33Z" transform="translate(-753.3 -15.93)"/>
      <path d="M840.43,230.33c-3.31,0-6.61.23-9.92,0a25,25,0,0,1-9.61-2.26,12.45,12.45,0,0,1-3.92-3,12.16,12.16,0,0,1-2.36-4.36,22.52,22.52,0,0,1-.36-9.89l0.26,0.17a3.85,3.85,0,0,1-2.1.59,6.85,6.85,0,0,1-2.13-.36,16.63,16.63,0,0,1-3.82-1.9,41,41,0,0,1-6.56-5.4,0.36,0.36,0,0,1,.39-0.58h0a39.94,39.94,0,0,0,4.39,1.48,20.76,20.76,0,0,0,4.5.78,6.55,6.55,0,0,0,2.15-.22,2,2,0,0,0,1.38-1.15l0.68-2.2q0.37-1.12.8-2.23a46.81,46.81,0,0,1,4.27-8.48c0.42-.67.88-1.32,1.35-2s1-1.27,1.48-1.88,1-1.21,1.62-1.77,1.17-1.11,1.75-1.66l-0.09.09a4.1,4.1,0,0,0,.39-0.58,2,2,0,0,0,.16-0.33,3.57,3.57,0,0,0,.14-0.35,8.27,8.27,0,0,0,.39-1.54,12.91,12.91,0,0,0,.16-1.64c0-.28,0-0.56,0-0.83s0-.57,0-0.81a1,1,0,0,1,1.89-.44v0c0.47,1.21,1,2.45,1.59,3.61a18.4,18.4,0,0,0,.94,1.67,7.07,7.07,0,0,0,.51.71,1.72,1.72,0,0,0,.39.37,0.89,0.89,0,0,1,.53,1.57l-0.31.27a56.06,56.06,0,0,0-4.72,4.64,54.51,54.51,0,0,0-4.17,5.13,19.53,19.53,0,0,0-2.93,5.57,7.19,7.19,0,0,0-.24,1.32,7,7,0,0,0,.1,1.45,12.79,12.79,0,0,0,.9,2.91,21.47,21.47,0,0,0,3.39,5.34,22.12,22.12,0,0,0,4.76,4.19,19.32,19.32,0,0,0,5.74,2.55,17.66,17.66,0,0,0,3.09.53c0.52,0.06,1,.07,1.57.08h3.33c0.56,0,1.15,0,1.63-.08a18,18,0,0,0,3.07-.52,19.38,19.38,0,0,0,5.75-2.52,22.15,22.15,0,0,0,4.78-4.17,21.84,21.84,0,0,0,3.4-5.33,13.34,13.34,0,0,0,.92-2.91,7.34,7.34,0,0,0,.11-1.4,5.42,5.42,0,0,0-.07-0.71l-0.05-.3-0.09-.35a18.93,18.93,0,0,0-2.91-5.56,54.69,54.69,0,0,0-4.19-5.11,57.34,57.34,0,0,0-4.74-4.63l-0.44-.38a0.84,0.84,0,0,1-.09-1.19,0.85,0.85,0,0,1,.75-0.29,1.72,1.72,0,0,0,.39-0.37,7.11,7.11,0,0,0,.51-0.71,18.56,18.56,0,0,0,.94-1.68c0.58-1.17,1.12-2.41,1.59-3.64v0a1,1,0,0,1,1.92.44c0,0.24,0,.53,0,0.8s0,0.55,0,.83a12.8,12.8,0,0,0,.16,1.63,8.24,8.24,0,0,0,.39,1.53,3.62,3.62,0,0,0,.14.35,2,2,0,0,0,.16.33,4.1,4.1,0,0,0,.39.58l-0.09-.09c0.59,0.55,1.21,1.07,1.75,1.66s1.1,1.17,1.62,1.77,1,1.24,1.48,1.88,0.93,1.3,1.35,2a46.74,46.74,0,0,1,4.27,8.47q0.42,1.11.8,2.23l0.68,2.21a2,2,0,0,0,1.37,1.13,6.56,6.56,0,0,0,2.14.22,20.77,20.77,0,0,0,4.5-.79,40,40,0,0,0,4.38-1.48h0a0.36,0.36,0,0,1,.41.58,28,28,0,0,1-3,2.93,24.08,24.08,0,0,1-3.44,2.42,15.39,15.39,0,0,1-3.89,1.62,10.54,10.54,0,0,1-2.1.31,9.34,9.34,0,0,1-2.11-.17l0.2-.22a18,18,0,0,1,.79,4.86,10.91,10.91,0,0,1-3.9,8.73,17.32,17.32,0,0,1-4.13,2.63,35,35,0,0,1-9.42,2.64A65.16,65.16,0,0,1,840.43,230.33Zm0,0a65.14,65.14,0,0,0,9.76-.73,34.94,34.94,0,0,0,9.38-2.68,17.21,17.21,0,0,0,4.09-2.63,10.7,10.7,0,0,0,3.71-8.63,17.71,17.71,0,0,0-.84-4.77,0.17,0.17,0,0,1,.11-0.22h0.09a9,9,0,0,0,2,.13,10.14,10.14,0,0,0,2-.33,14.23,14.23,0,0,0,3.74-1.65,23.53,23.53,0,0,0,3.29-2.46,27.41,27.41,0,0,0,2.87-2.93L881.1,204a40.69,40.69,0,0,1-4.44,1.64,21.65,21.65,0,0,1-4.68,1,7.55,7.55,0,0,1-2.5-.2,3.1,3.1,0,0,1-2.12-1.74l-0.76-2.24q-0.4-1.09-.84-2.15a45.35,45.35,0,0,0-4.37-8.1c-0.43-.64-0.88-1.25-1.35-1.85s-1-1.19-1.47-1.75-1-1.12-1.58-1.64-1.13-1-1.69-1.51l0,0,0,0a5.84,5.84,0,0,1-.62-0.86,3.35,3.35,0,0,1-.24-0.45c-0.07-.15-0.15-0.31-0.21-0.46a10.06,10.06,0,0,1-.53-1.87,14.7,14.7,0,0,1-.23-1.87c0-.31,0-0.62,0-0.93s0-.61,0-1l1.93,0.41c-0.47,1.32-1,2.6-1.56,3.88a20.59,20.59,0,0,1-1,1.91,9.23,9.23,0,0,1-.65,1,3.52,3.52,0,0,1-1.12,1l0.22-1.86a59.38,59.38,0,0,1,5.09,4.69,50.68,50.68,0,0,1,4.53,5.26,21.32,21.32,0,0,1,3.42,6.35l0.13,0.47,0.1,0.53a7.48,7.48,0,0,1,.11,1,10,10,0,0,1-.12,2,16,16,0,0,1-1,3.56,23.45,23.45,0,0,1-3.79,6.11,25,25,0,0,1-5.38,4.75,22.33,22.33,0,0,1-6.6,2.94,20.87,20.87,0,0,1-3.6.62c-0.65.07-1.19,0.07-1.76,0.09h-3.45c-0.6,0-1.21,0-1.81-.1a20.61,20.61,0,0,1-3.57-.64,22.26,22.26,0,0,1-6.58-3,25,25,0,0,1-5.36-4.77,23.4,23.4,0,0,1-3.76-6.13c-0.88-2.24-1.61-4.77-.76-7.5a21.91,21.91,0,0,1,3.42-6.33,52.07,52.07,0,0,1,4.51-5.27,58.05,58.05,0,0,1,5.08-4.71l0.21,1.84a3.51,3.51,0,0,1-1.11-1,9.17,9.17,0,0,1-.65-0.95,20.43,20.43,0,0,1-1-1.89c-0.59-1.27-1.1-2.53-1.57-3.85l1.9-.41c0,0.35,0,.64,0,1s0,0.62,0,.93a14.79,14.79,0,0,1-.23,1.87,10.07,10.07,0,0,1-.53,1.87c-0.05.16-.14,0.31-0.21,0.46a3.37,3.37,0,0,1-.24.45,5.8,5.8,0,0,1-.62.87l0,0,0,0c-0.56.5-1.16,1-1.69,1.51s-1.07,1.07-1.58,1.64-1,1.15-1.47,1.75-0.92,1.22-1.35,1.85a45.44,45.44,0,0,0-4.37,8.11q-0.44,1.07-.84,2.15l-0.77,2.25a3.1,3.1,0,0,1-2.11,1.72,7.52,7.52,0,0,1-2.5.2,21.62,21.62,0,0,1-4.68-.95A40.67,40.67,0,0,1,800,204l0.41-.58a40.4,40.4,0,0,0,6.3,5.49,15.72,15.72,0,0,0,3.68,1.92,6.46,6.46,0,0,0,2,.38,3.49,3.49,0,0,0,1.92-.51,0.17,0.17,0,0,1,.23.05,0.17,0.17,0,0,1,0,.12,22.26,22.26,0,0,0,.21,9.78,11.83,11.83,0,0,0,2.27,4.33,12.33,12.33,0,0,0,3.87,3,24.94,24.94,0,0,0,9.57,2.3C833.81,230.53,837.12,230.36,840.43,230.33Z" transform="translate(-753.3 -15.93)"/>
    </g>
    <path d="M827,191.13a11.28,11.28,0,0,1,2.22-1.5,11,11,0,0,1,2.58-1,7.68,7.68,0,0,1,1.46-.21,6.43,6.43,0,0,1,1.56.14,5.89,5.89,0,0,1,.74.19c0.25,0.08.49,0.17,0.72,0.27a8.11,8.11,0,0,0,1,.43,8.56,8.56,0,0,0,2.09.18c0.39,0,.82,0,1.2,0s0.8,0,1.17-.08a7.59,7.59,0,0,0,1-.16,5.91,5.91,0,0,0,1-.34,6.58,6.58,0,0,1,3-.66h0.09a7.71,7.71,0,0,1,2,.4,15.18,15.18,0,0,1,1.72.77c1,0.59,2.06,1.08,3.18,1.59a10.13,10.13,0,0,1-1.84.05c-0.62,0-1.23-.14-1.82-0.22a13.44,13.44,0,0,0-1.67-.24,8.06,8.06,0,0,0-1.53,0H847a7,7,0,0,0-1,.28,7.18,7.18,0,0,0-.92.48,7.36,7.36,0,0,1-1.41.64,9.85,9.85,0,0,1-1.48.33c-0.48.07-1,.11-1.4,0.13s-0.91,0-1.38,0a10.75,10.75,0,0,1-1.43-.11,6.42,6.42,0,0,1-1.57-.39,8.52,8.52,0,0,1-1.29-.69l-0.46-.26a5,5,0,0,0-.49-0.21,4.71,4.71,0,0,0-1-.28,9.27,9.27,0,0,0-1.12-.11,11.54,11.54,0,0,0-1.2,0c-0.41,0-.83.06-1.25,0.12C828.73,190.84,827.88,191,827,191.13Z" transform="translate(-753.3 -15.93)"/>
    <path d="M832.88,198.88H833l0.54,0,1.8,0.19,1.18,0.12c0.41,0.06.85,0.05,1.3,0.12,0.9,0.05,1.85.12,2.79,0.12,0.47,0,.94,0,1.41,0s0.92,0,1.37,0c0.89-.06,1.73-0.12,2.45-0.22l1-.12c0.29-.06.56-0.09,0.78-0.12,0.44-.06.71-0.08,0.71-0.08s-0.19.17-.56,0.44a7.84,7.84,0,0,1-1.61,1l-0.55.27-0.62.21a8,8,0,0,1-1.36.38,10.34,10.34,0,0,1-1.5.24,10.84,10.84,0,0,1-1.56.06,13.16,13.16,0,0,1-1.55-.11c-0.51,0-1-.18-1.48-0.27a13.2,13.2,0,0,1-2.51-.87,10.41,10.41,0,0,1-1.63-.92A4.57,4.57,0,0,1,833,199,1.18,1.18,0,0,0,832.88,198.88Z" transform="translate(-753.3 -15.93)"/>
    <path class="cls-10" d="M833.69,165.91a16.69,16.69,0,0,1,14.08,0" transform="translate(-753.3 -15.93)"/>
    <path class="cls-1" d="M908.88,120.54c0.5,13.1-16.72,37.51-16.72,37.51s-3.12-13.6-4.59-16.11-4.14-8.8-7.4-14.95-3.62-18.07-3.62-18.07-1.58,8-11.27,5.69c3.67-10-12.73-8.89-12.73-8.89s3.18-1.13-1.22,7.3-17.39,10.93-22.95,6.83c7.67-3.64,1.76-13.89,1.76-13.89s-7.23-1.82-16.41,4.55c1.59-5.47-8-2.28-13.71-2.28,0.61,15.94-7.47,23.68-7.47,23.68s-4.9-2.28-7.1,24.79c-18.61-11-13.47-35.49-13.47-35.49s-0.73-23.68,16.16-30.29,93.3-6.22,97-3.91S907.9,95,908.88,120.54Z" transform="translate(-753.3 -15.93)"/>
  </g>
</svg>
